<?xml version="1.0" standalone="no"?>
<!DOCTYPE svg PUBLIC "-//W3C//DTD SVG 20010904//EN"
 "http://www.w3.org/TR/2001/REC-SVG-20010904/DTD/svg10.dtd">
<svg version="1.0" xmlns="http://www.w3.org/2000/svg"
 width="1500.000000pt" height="660.000000pt" viewBox="0 0 1500.000000 660.000000"
 preserveAspectRatio="xMidYMid meet">

<g transform="translate(0.000000,660.000000) scale(0.100000,-0.100000)"
fill="#000000" stroke="none">
<path d="M3115 5286 c-214 -70 -362 -160 -516 -315 -151 -151 -239 -290 -307
-483 -35 -97 -62 -228 -62 -294 0 -33 5 -46 22 -58 29 -20 41 -20 68 2 17 14
25 38 36 104 48 299 212 571 459 757 88 67 266 154 370 182 89 24 115 41 115
76 0 29 -33 63 -62 63 -13 -1 -68 -15 -123 -34z"/>
<path d="M4980 5300 c-25 -25 -26 -62 -2 -82 9 -8 38 -20 64 -27 26 -6 78 -22
115 -36 37 -13 69 -22 71 -20 2 2 -5 16 -15 32 -11 15 -22 33 -24 38 -2 6 -15
27 -29 47 -21 31 -35 39 -87 52 -76 20 -69 20 -93 -4z"/>
<path d="M6705 5098 c-3 -7 -4 -508 -3 -1113 l3 -1100 160 0 160 0 5 445 5
445 290 6 c228 5 303 10 349 23 168 47 331 183 405 335 56 116 75 207 69 340
-11 250 -138 451 -352 557 -139 69 -180 73 -669 74 -325 0 -419 -3 -422 -12z
m920 -351 c77 -36 147 -110 175 -185 17 -45 21 -74 18 -137 -4 -96 -29 -154
-94 -220 -69 -68 -130 -87 -299 -92 -77 -2 -155 -6 -173 -9 -46 -7 -101 -60
-129 -122 -22 -50 -25 -53 -56 -50 l-32 3 -3 410 c-1 225 0 416 3 423 4 11 56
13 267 10 l263 -3 60 -28z"/>
<path d="M11275 5098 c-3 -7 -4 -506 -3 -1108 l3 -1095 168 -3 167 -2 0 474
c0 529 0 531 69 622 26 35 56 59 103 83 58 29 76 34 137 33 116 0 219 -63 274
-167 21 -39 22 -52 27 -540 l5 -500 163 -3 162 -2 0 548 c0 473 -2 556 -16
603 -54 183 -210 337 -389 384 -33 8 -98 15 -145 15 -136 0 -230 -31 -337
-111 l-53 -40 0 411 0 410 -165 0 c-123 0 -167 -3 -170 -12z"/>
<path d="M3190 4872 c-285 -104 -498 -351 -556 -646 -20 -101 -13 -135 28
-150 20 -7 33 -5 50 6 20 13 26 30 36 93 43 275 248 507 528 596 84 27 94 34
94 70 0 65 -59 75 -180 31z"/>
<path d="M4902 4888 c-7 -7 -12 -27 -12 -45 0 -37 23 -57 80 -68 54 -10 211
-89 268 -135 71 -56 154 -158 201 -249 37 -70 57 -135 78 -251 6 -33 15 -48
34 -59 24 -13 29 -13 53 2 22 15 26 25 26 63 0 74 -29 173 -85 289 -63 129
-134 219 -237 300 -147 115 -363 196 -406 153z"/>
<path d="M8370 3990 c0 -576 3 -606 70 -745 70 -146 214 -273 370 -325 89 -30
232 -37 329 -16 104 22 209 77 290 152 87 81 137 155 175 264 l31 85 3 548 3
547 -170 0 -171 0 0 -518 c0 -586 1 -575 -76 -661 -59 -66 -127 -95 -219 -95
-119 0 -211 56 -267 164 l-23 45 -5 530 -5 530 -167 3 -168 2 0 -510z"/>
<path d="M10262 4480 c-40 -11 -97 -32 -125 -47 -73 -39 -168 -136 -203 -208
-27 -56 -29 -68 -29 -180 0 -115 1 -123 32 -186 73 -148 212 -234 468 -290
118 -25 168 -43 213 -77 121 -89 84 -241 -70 -287 -146 -43 -299 5 -380 120
-18 25 -37 45 -43 45 -13 0 -257 -109 -269 -120 -14 -13 44 -109 105 -175 64
-68 137 -115 237 -153 62 -24 78 -26 232 -26 152 0 171 2 246 27 147 49 249
138 312 274 35 76 43 220 17 309 -53 186 -193 284 -503 354 -217 49 -279 96
-270 206 4 45 10 61 39 90 84 86 256 83 354 -7 23 -22 48 -53 55 -69 7 -17 16
-30 21 -30 8 0 260 109 268 116 2 2 -9 29 -24 60 -36 73 -123 160 -202 202
-134 71 -328 92 -481 52z"/>
<path d="M3475 4407 c-77 -53 -198 -174 -257 -257 -57 -80 -119 -204 -147
-290 -54 -167 -54 -165 -60 -805 -6 -592 -6 -601 -28 -641 -25 -48 -92 -110
-137 -129 -18 -8 -57 -17 -87 -21 -30 -4 -66 -13 -81 -21 -54 -27 -74 -108
-41 -164 37 -63 -57 -59 1495 -59 1400 0 1413 0 1446 20 65 40 77 132 24 185
-26 26 -35 29 -112 40 -94 13 -175 70 -216 151 -18 36 -19 69 -24 437 -6 430
-1 397 -57 434 -100 68 -231 164 -242 177 -7 9 -20 16 -27 16 -8 0 -14 5 -14
10 0 6 -5 10 -11 10 -11 0 -111 66 -148 99 -13 11 -56 42 -95 68 -39 27 -72
51 -74 56 -2 4 -10 7 -17 7 -8 0 -21 7 -30 16 -19 20 -156 118 -310 222 -60
41 -131 92 -156 113 -26 22 -52 39 -58 39 -6 0 -11 5 -11 10 0 6 -6 10 -12 10
-7 1 -40 21 -73 45 -33 24 -98 71 -145 104 -47 33 -89 64 -95 69 -17 14 -134
92 -137 91 -2 0 -30 -19 -63 -42z"/>
<path d="M6808 2229 c-66 -15 -160 -70 -221 -127 -110 -105 -163 -268 -137
-420 34 -203 201 -371 400 -402 91 -14 5441 -14 5530 1 172 27 320 153 381
325 29 80 29 214 1 301 -50 156 -177 277 -337 319 -41 11 -536 14 -2815 13
-1561 -1 -2781 -5 -2802 -10z m529 -260 c37 -12 79 -43 93 -69 9 -16 5 -22
-18 -34 -28 -14 -31 -14 -53 10 -67 71 -197 48 -235 -42 -54 -128 54 -256 180
-214 33 11 86 60 86 81 0 5 -31 9 -70 9 l-70 0 0 30 0 30 116 0 116 0 -7 -37
c-21 -115 -107 -186 -223 -185 -139 1 -241 128 -211 262 31 138 152 202 296
159z m624 -10 c124 -62 158 -231 67 -335 -101 -114 -285 -99 -359 31 -109 190
95 403 292 304z m3666 -1 c24 -11 52 -32 62 -47 l20 -27 -29 -17 c-27 -17 -29
-16 -60 13 -95 89 -240 20 -240 -115 0 -135 145 -204 240 -115 31 29 33 30 60
13 l29 -17 -20 -27 c-45 -64 -169 -91 -254 -55 -127 54 -171 210 -93 326 31
45 68 70 125 86 56 15 101 10 160 -18z m-3296 -133 c35 -85 65 -152 68 -149 4
3 33 71 66 152 l60 147 38 3 c20 2 37 1 37 -1 0 -2 -39 -96 -86 -208 -47 -112
-88 -210 -91 -217 -3 -7 -14 -12 -25 -10 -15 2 -40 51 -109 211 -49 115 -89
213 -89 218 0 5 15 9 34 9 l34 0 63 -155z m704 120 l0 -30 -102 -3 -103 -3 0
-54 0 -55 95 0 95 0 0 -30 0 -30 -95 0 -95 0 0 -60 0 -59 103 -3 102 -3 0 -30
0 -30 -135 0 -135 0 -3 200 c-1 110 0 205 3 213 3 10 35 12 137 10 l133 -3 0
-30z m411 16 c44 -20 74 -67 74 -119 0 -53 -48 -107 -114 -127 -17 -5 -8 -18
59 -85 l80 -80 -45 0 c-42 0 -49 4 -122 77 l-78 78 0 -78 0 -77 -35 0 -35 0 0
215 0 215 88 0 c63 0 98 -6 128 -19z m426 -117 l103 -136 5 134 5 133 33 3 32
3 0 -221 c0 -205 -1 -221 -17 -218 -10 2 -70 71 -133 154 l-115 151 -5 -146
-5 -146 -32 -3 -33 -3 0 215 0 216 30 0 c26 0 41 -15 132 -136z m631 -11 c31
-82 67 -179 81 -216 l26 -68 -37 3 c-35 3 -39 7 -53 46 l-15 43 -94 -3 -94 -3
-15 -42 c-12 -39 -17 -43 -48 -43 -19 0 -34 4 -34 10 0 7 39 111 151 398 6 17
17 22 43 22 l34 0 55 -147z m437 7 l105 -139 3 140 3 140 32 -3 32 -3 0 -215
c0 -187 -2 -215 -16 -218 -10 -2 -57 52 -135 155 l-119 157 -3 -153 -3 -152
-32 3 -32 3 -3 200 c-1 110 0 205 2 212 3 7 18 13 33 13 24 0 42 -19 133 -140z
m1220 105 l0 -35 -100 0 -100 0 0 -55 0 -55 90 0 90 0 0 -30 0 -30 -90 0 -90
0 0 -60 0 -60 100 0 100 0 0 -35 0 -35 -135 0 -135 0 0 215 0 215 135 0 135 0
0 -35z"/>
<path d="M7815 1913 c-38 -10 -73 -43 -89 -83 -22 -55 -20 -88 7 -140 52 -102
177 -105 251 -7 28 38 28 126 0 164 -42 56 -109 83 -169 66z"/>
<path d="M9300 1845 l0 -65 55 0 c42 0 60 5 75 20 24 24 26 57 4 88 -13 19
-24 22 -75 22 l-59 0 0 -65z"/>
<path d="M10405 1865 c-5 -11 -21 -53 -36 -92 l-27 -73 69 0 68 0 -28 78 c-15
42 -31 84 -33 92 -5 12 -7 11 -13 -5z"/>
<path d="M3636 1699 c-35 -28 -34 -70 6 -139 78 -138 244 -249 405 -272 203
-29 413 57 534 220 80 108 88 178 23 202 -15 6 -208 10 -483 10 -449 0 -459 0
-485 -21z"/>
</g>
</svg>
