<?xml version="1.0" standalone="no"?>
<!DOCTYPE svg PUBLIC "-//W3C//DTD SVG 20010904//EN"
 "http://www.w3.org/TR/2001/REC-SVG-20010904/DTD/svg10.dtd">
<svg version="1.0" xmlns="http://www.w3.org/2000/svg"
 width="330.000000pt" height="126.000000pt" viewBox="0 0 330.000000 126.000000"
 preserveAspectRatio="xMidYMid meet">

<g transform="translate(0.000000,126.000000) scale(0.100000,-0.100000)"
fill="#000000" stroke="none">
<path d="M256 1235 c-109 -45 -192 -134 -226 -244 -25 -78 -26 -104 -4 -99 11
2 22 22 30 55 19 75 49 128 98 177 41 41 138 96 170 96 9 0 16 9 16 20 0 26
-12 25 -84 -5z"/>
<path d="M870 1242 c0 -22 39 -35 62 -21 13 8 6 22 -15 25 -7 1 -20 5 -29 9
-14 5 -18 2 -18 -13z"/>
<path d="M290 1109 c-77 -35 -131 -99 -148 -176 -10 -43 -2 -70 17 -59 6 4 11
15 11 25 0 32 52 121 86 147 19 15 51 32 71 39 38 13 51 37 23 42 -8 2 -35 -6
-60 -18z"/>
<path d="M845 1120 c-10 -16 3 -28 37 -35 52 -12 126 -89 144 -151 17 -59 31
-75 41 -48 11 30 -27 120 -71 165 -56 57 -136 94 -151 69z"/>
<path d="M372 945 c-30 -27 -63 -70 -79 -103 -27 -56 -28 -62 -33 -269 -5
-204 -6 -212 -28 -236 -13 -14 -39 -28 -57 -31 -37 -7 -50 -28 -35 -57 10 -18
27 -19 459 -19 380 0 450 2 461 15 20 24 7 47 -35 62 -68 23 -75 39 -75 174 0
107 -2 119 -20 129 -10 6 -26 25 -35 43 -9 20 -30 41 -52 51 -21 10 -51 29
-68 42 -45 37 -123 89 -179 119 -55 30 -76 48 -76 65 0 6 -6 10 -12 9 -33 -4
-46 3 -52 26 -9 36 -27 31 -84 -20z"/>
<path d="M440 113 c0 -9 20 -36 44 -59 56 -53 113 -66 181 -39 48 18 95 65 95
96 0 18 -9 19 -160 19 -143 0 -160 -2 -160 -17z"/>
</g>
</svg>
