<?xml version="1.0" standalone="no"?>
<!DOCTYPE svg PUBLIC "-//W3C//DTD SVG 20010904//EN"
 "http://www.w3.org/TR/2001/REC-SVG-20010904/DTD/svg10.dtd">
<svg version="1.0" xmlns="http://www.w3.org/2000/svg"
 width="1080.000000pt" height="539.000000pt" viewBox="0 0 1080.000000 539.000000"
 preserveAspectRatio="xMidYMid meet">

<g transform="translate(0.000000,539.000000) scale(0.100000,-0.100000)"
fill="#000000" stroke="none">
<path d="M2335 4258 c-11 -13 -21 -33 -22 -44 -2 -17 4 -19 40 -18 71 4 102
14 114 40 13 29 12 30 -57 38 -50 6 -58 5 -75 -16z"/>
<path d="M3045 4120 c3 -5 16 -10 28 -10 18 0 19 2 7 10 -20 13 -43 13 -35 0z"/>
<path d="M2322 4093 c-12 -3 -20 -8 -17 -12 2 -5 -50 -11 -116 -13 -70 -3
-125 -10 -132 -17 -6 -6 -25 -11 -42 -11 -16 -1 -48 -8 -70 -16 -22 -9 -71
-25 -110 -36 -38 -10 -80 -25 -92 -31 -36 -19 -110 -56 -155 -76 -24 -10 -60
-27 -80 -36 -20 -9 -42 -13 -49 -9 -9 5 -10 2 -6 -9 5 -12 -11 -29 -58 -64
-35 -27 -97 -78 -137 -115 -40 -38 -78 -68 -86 -68 -7 0 -11 -4 -8 -8 2 -4
-11 -28 -30 -51 -19 -24 -34 -47 -34 -50 0 -3 -16 -23 -35 -44 -19 -21 -35
-47 -35 -58 0 -10 -3 -19 -7 -19 -5 0 -21 -26 -38 -57 -16 -32 -36 -64 -42
-71 -7 -7 -13 -21 -13 -30 0 -20 -42 -125 -57 -144 -6 -7 -14 -33 -18 -58 -4
-25 -11 -50 -16 -55 -4 -6 -12 -38 -18 -72 -5 -34 -15 -71 -20 -82 -6 -11 -11
-30 -11 -43 0 -13 -6 -32 -14 -43 -28 -42 -38 -448 -12 -510 9 -21 16 -50 16
-66 0 -52 37 -171 59 -189 4 -3 12 -17 18 -32 13 -29 33 -38 33 -15 0 9 3 8 9
-2 5 -8 5 -27 0 -43 -6 -23 -4 -33 12 -49 10 -10 19 -28 19 -40 0 -12 8 -23
20 -26 13 -3 20 -14 20 -29 0 -26 48 -80 67 -76 8 2 10 -3 7 -12 -7 -18 10
-52 46 -91 15 -16 35 -54 45 -82 16 -51 23 -58 54 -53 19 2 33 -22 18 -33 -7
-5 -3 -6 11 -2 12 4 22 2 22 -4 0 -12 58 -71 70 -71 5 0 12 -9 15 -20 4 -11
10 -18 14 -15 5 2 29 -9 55 -25 49 -32 76 -38 76 -18 0 9 3 8 13 -1 10 -11 9
-14 -1 -18 -20 -8 6 -33 34 -33 26 0 32 -18 12 -38 -19 -19 -3 -24 38 -13 31
9 39 8 49 -6 9 -12 21 -14 48 -9 24 4 37 3 37 -4 0 -5 -5 -10 -11 -10 -22 0 2
-18 32 -24 18 -3 37 -14 44 -23 13 -18 69 -21 89 -4 15 13 66 -7 66 -25 0 -15
70 -28 82 -16 6 6 22 7 41 1 18 -5 160 -9 317 -9 225 0 290 3 305 14 11 7 42
17 70 21 27 4 58 13 69 21 11 8 35 14 52 14 17 0 37 7 44 15 7 8 20 15 29 15
9 0 39 11 66 25 28 13 56 25 63 25 6 0 12 5 12 10 0 6 6 10 14 10 12 0 191
112 206 129 3 4 23 19 45 35 64 46 275 272 275 295 0 6 5 11 10 11 6 0 15 10
21 23 18 41 76 117 83 110 4 -4 4 0 1 10 -4 10 1 27 14 43 12 15 21 35 21 45
0 10 4 20 9 24 5 3 12 18 16 34 3 16 13 35 21 42 8 6 14 22 14 36 0 14 4 22
10 18 7 -4 9 2 4 19 -4 17 -1 31 10 41 9 9 16 29 16 44 0 14 9 51 19 81 17 48
20 91 23 325 1 148 0 256 -3 240 -5 -23 -7 -16 -8 26 0 31 -8 70 -16 85 -8 16
-15 43 -15 59 0 17 -7 43 -16 60 -10 19 -11 31 -5 33 14 5 14 39 1 47 -5 3
-10 -2 -10 -12 0 -18 -40 53 -40 72 -1 5 -9 28 -20 50 -11 22 -19 45 -20 51 0
6 -7 17 -15 24 -8 7 -13 16 -10 20 3 5 -6 22 -20 38 -14 16 -25 35 -25 41 0 7
-6 14 -14 17 -8 3 -12 16 -9 32 2 19 1 22 -4 10 -7 -15 -10 -13 -25 12 -12 21
-13 30 -5 30 7 0 -3 8 -20 16 -18 9 -33 23 -33 30 0 8 -6 14 -12 15 -7 0 -4 4
7 9 11 5 15 9 9 9 -7 1 -14 10 -17 21 -3 11 -10 20 -16 20 -6 0 -8 -7 -4 -16
5 -14 3 -15 -15 -5 -12 6 -25 24 -28 39 -17 68 -66 120 -120 126 -29 3 -86 45
-78 58 3 5 2 7 -3 6 -4 -2 -19 5 -33 15 -18 12 -20 17 -8 17 11 0 15 6 11 18
-4 18 -83 48 -83 31 0 -4 -14 -2 -31 4 l-31 12 28 6 c27 6 27 7 -8 8 -41 1
-80 16 -117 43 -21 16 -22 18 -5 18 18 1 18 1 2 11 -12 7 -24 7 -37 0 -14 -8
-20 -8 -23 0 -2 6 -19 14 -38 19 -34 8 -34 8 -6 9 24 1 27 3 16 16 -16 19 -36
19 -43 0 -5 -12 -10 -12 -34 0 -15 8 -42 15 -58 15 -17 0 -55 9 -86 19 -30 11
-72 22 -94 25 -63 9 -181 34 -166 35 8 1 12 4 8 7 -7 8 -103 12 -135 7z m-27
-92 c-6 -6 -25 -6 -45 -1 l-35 8 45 1 c27 1 40 -3 35 -8z m292 -3 c-3 -9 -23
-12 -68 -10 -100 6 -107 21 -11 22 63 0 83 -3 79 -12z m150 -38 c23 -12 57
-20 85 -20 37 0 50 -4 58 -20 8 -15 21 -20 50 -20 21 0 42 -5 45 -10 4 -6 21
-17 38 -25 36 -16 69 -37 77 -46 3 -4 24 -13 48 -20 23 -7 47 -18 53 -26 6 -7
16 -13 21 -13 5 0 14 -4 21 -10 7 -5 47 -37 91 -71 82 -64 138 -118 221 -214
51 -59 115 -151 115 -164 0 -4 9 -16 20 -26 11 -10 20 -26 20 -35 0 -10 9 -29
20 -43 11 -14 20 -28 20 -32 0 -7 35 -90 54 -125 12 -23 30 -84 70 -245 21
-80 25 -529 6 -565 -7 -13 -16 -49 -20 -79 -8 -53 -27 -116 -57 -188 -7 -17
-13 -34 -13 -37 0 -6 -83 -176 -103 -211 -46 -81 -147 -205 -241 -299 -219
-219 -486 -360 -803 -425 -145 -30 -440 -30 -575 -1 -119 26 -192 47 -246 71
-23 11 -48 19 -54 19 -11 0 -143 63 -193 93 -198 116 -369 273 -502 464 -41
58 -123 202 -123 215 0 7 -9 27 -20 43 -11 17 -20 36 -20 43 0 8 -7 28 -15 45
-19 42 -37 113 -69 282 -18 88 -20 307 -6 390 5 28 15 82 21 120 6 39 20 81
30 94 11 13 19 37 19 52 0 16 5 29 10 29 6 0 10 -4 10 -8 0 -4 8 -8 17 -9 28
-2 65 -10 113 -23 25 -7 55 -12 68 -12 12 1 22 -3 22 -10 0 -6 3 -8 7 -5 3 4
14 0 24 -9 11 -10 27 -14 40 -11 12 3 32 2 45 -4 33 -12 69 -19 129 -24 28 -3
62 -7 77 -10 15 -4 29 -1 33 5 5 8 11 4 19 -12 6 -12 20 -23 31 -23 11 0 20
-5 20 -12 0 -6 4 -15 9 -20 5 -5 6 -3 2 5 -4 6 -4 12 -1 12 10 0 42 -34 54
-57 6 -12 25 -24 43 -28 60 -12 67 -16 61 -31 -3 -8 2 -25 11 -39 9 -14 14
-29 12 -34 -3 -5 4 -19 17 -33 54 -59 80 -100 84 -130 2 -17 7 -35 13 -38 5
-3 7 -14 6 -25 -2 -11 2 -29 8 -40 7 -11 13 -33 14 -49 1 -17 8 -34 15 -38 9
-6 9 -10 0 -16 -9 -6 -10 -17 -3 -42 5 -18 7 -36 5 -39 -3 -2 1 -11 8 -20 12
-15 30 -78 41 -142 2 -14 11 -47 20 -73 19 -56 20 -87 4 -105 -10 -11 -10 -13
0 -7 7 4 12 1 12 -8 0 -8 -5 -16 -11 -18 -7 -2 -7 -12 -1 -28 13 -36 15 -160
3 -160 -15 0 -14 -37 2 -44 8 -3 7 -8 -5 -16 -10 -6 -18 -17 -18 -24 0 -8 -7
-19 -15 -26 -23 -19 -18 -56 11 -79 15 -12 33 -21 41 -21 7 0 21 -16 30 -35 9
-19 24 -35 33 -35 9 0 20 -4 26 -10 5 -5 38 -17 74 -26 58 -15 77 -19 115 -23
6 -1 2 -6 -7 -12 -10 -5 -18 -14 -18 -18 0 -15 41 -20 66 -9 16 8 39 8 74 1
41 -8 63 -7 123 10 39 10 80 23 89 28 10 5 35 9 55 9 52 0 98 14 124 39 12 11
52 32 89 46 37 14 82 37 101 51 19 14 47 32 62 38 32 14 137 106 242 212 62
62 146 183 144 208 0 5 3 12 9 15 12 8 112 215 112 234 0 8 6 20 14 26 9 8 17
42 22 92 3 43 10 79 13 79 4 0 8 21 8 48 1 26 8 65 16 87 8 22 12 49 9 60 -3
11 -7 56 -9 100 -2 44 -6 94 -8 110 -3 17 -7 49 -9 72 -2 24 -9 50 -16 58 -7
8 -9 15 -4 15 5 0 1 5 -9 11 -13 7 -22 7 -31 0 -7 -6 -17 -7 -21 -3 -5 4 -5 2
-2 -4 4 -7 0 -17 -8 -24 -7 -6 -11 -18 -9 -25 3 -7 -5 -19 -18 -26 -12 -7 -29
-18 -37 -26 -11 -12 -9 -13 15 -8 l29 7 -25 -15 c-16 -9 -31 -11 -42 -5 -13 6
-18 5 -18 -6 0 -11 -20 -13 -115 -11 -63 2 -113 0 -111 -4 3 -4 -8 -12 -24
-18 -16 -6 -28 -8 -27 -5 1 4 0 7 -3 8 -3 0 -15 6 -27 12 -16 9 -24 9 -29 1
-4 -8 -9 -8 -17 0 -6 6 -39 11 -73 11 -35 0 -65 3 -68 8 -2 4 -7 28 -11 52 -6
42 -42 90 -67 90 -5 0 -7 4 -4 9 3 4 -6 19 -19 31 -14 13 -25 20 -25 15 0 -4
8 -14 18 -22 15 -12 13 -12 -10 -2 -16 7 -29 17 -30 23 0 6 -2 16 -2 21 -2 11
-48 59 -60 62 -17 4 -53 49 -51 65 2 10 -2 15 -10 12 -23 -9 -120 96 -140 151
-10 28 -27 57 -37 66 -12 11 -18 30 -18 58 0 26 -4 40 -10 36 -6 -4 -10 7 -10
27 0 18 -7 42 -15 52 -16 21 -21 51 -7 42 4 -2 9 7 10 22 1 14 8 29 15 33 8 5
11 22 8 51 -4 37 -5 40 -12 18 -7 -23 -7 -23 -8 8 -1 26 3 32 19 32 16 0 20 7
20 30 0 30 -14 41 -23 18 -3 -7 -6 6 -6 30 -1 29 3 42 13 42 7 0 16 9 19 21 4
16 3 18 -8 9 -10 -8 -14 -7 -17 2 -3 7 -33 17 -68 23 -75 12 -96 36 -28 34 76
-3 258 10 275 20 14 7 10 11 -22 16 -22 4 -53 10 -70 14 l-30 8 38 7 c20 4 41
5 46 2 5 -3 16 3 26 14 25 27 102 27 152 0z m-364 -407 c-7 -2 -13 -19 -14
-36 0 -31 -1 -31 -10 -8 -12 31 -5 51 18 50 11 0 13 -3 6 -6z m-1378 -553 c3
-5 1 -10 -4 -10 -6 0 -11 5 -11 10 0 6 2 10 4 10 3 0 8 -4 11 -10z m2160 -340
c3 -6 -1 -7 -9 -4 -18 7 -21 14 -7 14 6 0 13 -4 16 -10z"/>
<path d="M2728 3863 c12 -2 32 -2 45 0 12 2 2 4 -23 4 -25 0 -35 -2 -22 -4z"/>
<path d="M2891 3814 c0 -11 3 -14 6 -6 3 7 2 16 -1 19 -3 4 -6 -2 -5 -13z"/>
<path d="M3286 3581 c-4 -5 -2 -12 3 -15 5 -4 12 -2 15 3 4 5 2 12 -3 15 -5 4
-12 2 -15 -3z"/>
<path d="M3510 3045 c0 -4 7 -20 16 -37 12 -24 18 -28 25 -17 5 8 9 24 9 37 0
17 -6 22 -25 22 -14 0 -25 -2 -25 -5z"/>
<path d="M1951 1674 c0 -11 3 -14 6 -6 3 7 2 16 -1 19 -3 4 -6 -2 -5 -13z"/>
<path d="M2478 4083 c7 -3 16 -2 19 1 4 3 -2 6 -13 5 -11 0 -14 -3 -6 -6z"/>
<path d="M3145 3940 c-3 -5 -1 -10 4 -10 6 0 11 5 11 10 0 6 -2 10 -4 10 -3 0
-8 -4 -11 -10z"/>
<path d="M3078 3903 c6 -2 18 -2 25 0 6 3 1 5 -13 5 -14 0 -19 -2 -12 -5z"/>
<path d="M4620 3580 c0 -7 147 -10 420 -10 273 0 420 3 420 10 0 7 -147 10
-420 10 -273 0 -420 -3 -420 -10z"/>
<path d="M7672 3555 c-4 -5 -7 -111 -8 -235 -1 -181 -4 -234 -17 -271 -9 -25
-19 -79 -22 -120 -4 -41 -13 -90 -20 -109 -8 -19 -16 -70 -18 -112 -2 -43 -10
-84 -17 -93 -7 -8 -15 -54 -18 -105 -3 -58 -10 -94 -18 -101 -9 -7 -14 -34
-15 -68 -1 -48 -3 -52 -10 -26 -6 23 -7 18 -3 -21 3 -34 -1 -61 -11 -80 -9
-17 -15 -56 -15 -94 0 -45 -5 -73 -16 -89 -10 -14 -19 -52 -22 -92 -3 -41 -10
-73 -18 -80 -8 -6 -14 -29 -14 -51 0 -23 -4 -37 -10 -33 -6 3 -7 -1 -4 -9 3
-9 -1 -23 -10 -31 -9 -9 -16 -25 -16 -34 0 -10 -7 -24 -15 -31 -8 -7 -15 -22
-15 -34 0 -17 -2 -18 -10 -6 -8 11 -9 8 -5 -11 5 -19 2 -28 -9 -32 -26 -10
-21 -66 7 -76 38 -14 435 -5 454 10 13 12 15 29 9 110 -4 54 -9 107 -11 119
-7 37 15 253 31 293 8 20 14 59 14 85 0 26 5 65 11 87 6 22 13 54 16 72 3 18
11 38 19 44 17 14 19 66 2 71 -9 3 -7 14 5 40 9 20 17 43 17 52 0 19 36 40 52
29 7 -4 40 -6 74 -5 33 2 72 -2 85 -7 13 -5 18 -10 11 -10 -7 -1 -10 -6 -6
-12 4 -8 9 -7 15 2 5 9 17 2 43 -27 20 -21 36 -44 36 -51 0 -7 6 -16 13 -20 7
-4 26 -36 42 -70 26 -54 34 -63 57 -63 36 0 44 19 50 113 3 43 10 83 17 90 6
6 11 29 12 52 0 22 3 34 6 28 2 -7 9 -13 14 -13 14 0 11 68 -3 73 -10 3 -10
11 1 38 8 19 17 68 20 110 3 42 12 83 18 91 10 11 10 17 1 26 -23 23 -52 12
-99 -38 -25 -27 -50 -46 -54 -42 -5 4 -5 2 -2 -4 6 -11 -70 -87 -130 -131 -30
-22 -60 -26 -179 -24 l-62 1 5 88 c3 48 12 99 19 114 8 15 15 53 15 85 2 52 3
54 9 23 7 -31 7 -30 5 11 -2 25 3 64 10 85 8 21 15 59 15 84 0 25 7 63 15 85
8 22 17 72 21 110 3 39 10 79 15 90 5 11 13 32 19 48 9 25 14 27 62 27 74 -1
234 -17 292 -29 43 -10 96 -47 96 -69 0 -4 16 -24 35 -44 19 -20 33 -43 32
-50 -2 -7 -2 -10 1 -5 6 12 42 -39 42 -60 0 -10 9 -26 20 -36 11 -9 20 -26 20
-36 0 -11 6 -24 13 -28 7 -4 17 -21 22 -38 9 -26 16 -30 45 -30 l35 0 0 147
c0 104 -4 151 -12 160 -17 16 -17 125 -1 130 7 3 9 12 5 22 -4 9 -11 14 -17
11 -5 -3 -10 3 -10 14 0 12 -6 21 -12 22 -7 0 -249 2 -536 2 -340 1 -526 -2
-530 -8z m1058 -21 c6 -6 18 -96 26 -205 8 -107 17 -202 20 -211 3 -10 3 -27
-1 -38 -9 -29 -46 -8 -67 38 -76 164 -191 317 -259 345 -40 16 -340 34 -376
23 -26 -8 -31 -21 -49 -126 -27 -162 -42 -247 -53 -286 -5 -21 -13 -66 -16
-99 -4 -33 -11 -74 -16 -91 -5 -17 -16 -71 -24 -120 -8 -49 -17 -101 -21 -116
-9 -37 19 -47 127 -44 120 3 155 23 283 158 59 62 109 107 115 103 10 -5 9
-29 -3 -135 -1 -8 -5 -21 -10 -28 -4 -7 -14 -54 -22 -105 -7 -51 -18 -114 -23
-142 -5 -27 -12 -71 -16 -97 -6 -44 -25 -78 -44 -78 -4 0 -17 21 -29 48 -33
72 -94 154 -138 184 -37 26 -44 28 -144 25 l-105 -2 -17 -55 c-9 -30 -21 -82
-27 -115 -19 -121 -33 -202 -47 -270 -44 -213 -53 -360 -29 -461 25 -108 33
-104 -206 -104 -109 0 -209 4 -222 9 l-25 10 54 108 c30 59 54 116 54 126 0
10 6 30 14 45 7 15 16 47 20 72 3 25 13 74 21 110 15 68 25 125 50 279 9 52
20 102 25 112 6 10 10 35 10 56 0 21 9 74 20 118 11 44 20 99 20 122 0 23 4
53 10 67 5 14 16 65 24 113 77 452 75 431 50 550 -8 42 -13 85 -10 97 l5 21
520 0 c369 0 523 -3 531 -11z"/>
<path d="M4576 3552 c-6 -10 30 -112 45 -126 13 -14 11 -26 -5 -26 -8 0 -17
13 -21 29 -3 16 -14 31 -25 34 -23 6 -18 -14 16 -59 30 -41 34 -75 9 -96 -23
-19 -10 -42 21 -36 15 2 18 13 17 63 0 33 1 45 4 26 2 -19 12 -45 20 -58 15
-22 17 -104 17 -766 1 -689 0 -744 -17 -774 -9 -18 -17 -42 -18 -55 0 -22 -1
-22 -10 -3 -7 16 -8 13 -4 -13 3 -20 -1 -42 -9 -55 -8 -12 -17 -38 -21 -57
-11 -64 0 -67 249 -73 221 -5 269 0 280 30 8 19 -12 93 -24 93 -5 0 -12 17
-15 38 -3 20 -13 52 -21 70 -16 38 -20 87 -4 62 7 -11 10 1 9 40 0 54 0 55
-13 25 -12 -26 -14 14 -14 288 l-1 317 104 0 c95 0 104 -2 110 -20 3 -11 10
-20 15 -20 5 0 11 -13 15 -29 3 -16 13 -35 21 -42 8 -6 14 -17 14 -25 0 -7 7
-20 16 -29 10 -10 14 -25 10 -43 -3 -15 -3 -21 0 -14 6 14 44 -27 44 -48 0 -9
10 -31 51 -110 5 -8 23 -44 40 -80 18 -36 36 -67 40 -70 3 -3 10 -20 14 -37 3
-18 10 -33 15 -33 5 0 24 -32 41 -70 18 -39 36 -70 41 -70 4 0 8 -8 8 -17 0
-10 9 -31 20 -48 11 -16 20 -37 20 -46 0 -9 7 -22 15 -29 9 -7 14 -19 11 -27
-3 -8 -1 -11 4 -8 6 3 10 2 10 -4 0 -5 14 -16 31 -25 24 -12 76 -15 248 -17
120 -1 224 2 230 5 6 4 11 20 11 37 0 21 -5 29 -17 29 -14 0 -15 2 -4 9 8 5 9
11 3 15 -6 3 -12 1 -14 -6 -3 -7 -16 -3 -38 13 -44 32 -110 94 -110 104 0 4
-18 29 -40 55 -22 26 -40 54 -40 62 0 8 -4 18 -9 24 -16 15 -61 104 -61 118 0
8 -7 19 -15 26 -8 7 -15 20 -15 30 0 9 -9 29 -20 43 -11 14 -20 32 -20 40 0 8
-7 17 -15 21 -8 3 -15 15 -15 27 0 11 -8 33 -19 47 -10 15 -22 37 -25 50 -4
12 -11 22 -16 22 -4 0 -11 12 -15 28 -3 15 -14 36 -23 46 -13 14 -14 20 -4 23
6 3 12 9 12 15 0 5 -6 8 -12 6 -16 -6 -48 34 -48 58 0 9 -8 26 -17 36 -14 15
-15 21 -4 27 10 6 10 10 1 16 -12 8 49 45 75 45 8 0 15 4 15 10 0 5 19 18 43
28 40 18 76 49 122 106 10 14 24 22 29 19 5 -3 6 -2 3 4 -7 12 31 93 48 99 6
3 10 19 9 37 -2 18 -1 24 2 15 3 -10 9 -18 14 -18 19 0 21 22 5 46 -11 17 -13
29 -7 37 5 7 13 41 16 77 5 51 4 69 -8 85 -20 26 -20 51 -1 59 18 7 19 30 3
59 -12 21 -13 21 -19 -13 l-6 -35 -2 33 c0 19 -7 35 -16 38 -8 4 -15 13 -15
21 0 15 -31 58 -73 101 -31 32 -139 102 -157 102 -8 0 -28 7 -45 16 -16 9 -64
19 -105 22 -41 2 -87 11 -102 18 -22 11 -112 14 -457 14 -236 0 -432 -4 -435
-8z m874 -21 c25 -6 63 -11 85 -11 41 0 158 -36 217 -66 133 -67 207 -171 230
-320 23 -149 -28 -323 -124 -423 -43 -46 -148 -118 -182 -127 -12 -3 -34 -15
-48 -27 l-27 -22 52 -103 c46 -91 223 -436 296 -577 65 -125 162 -237 236
-272 40 -19 45 -38 13 -47 -32 -8 -419 -6 -441 3 -10 4 -50 70 -90 149 -355
700 -387 763 -406 785 -11 14 -33 17 -115 17 -55 0 -107 -4 -114 -9 -17 -10
-18 -524 -1 -646 11 -86 43 -197 65 -230 19 -26 18 -61 -2 -69 -9 -3 -118 -6
-244 -6 -263 0 -266 1 -232 72 72 154 82 271 81 920 0 556 -9 747 -39 838 -11
36 -27 74 -34 85 -18 28 -27 68 -18 82 10 16 60 18 452 16 199 -1 364 -6 390
-12z"/>
<path d="M5031 3466 c-16 -19 -16 -885 0 -901 5 -5 58 -11 117 -13 119 -3 229
16 302 51 48 23 130 93 130 110 0 6 6 18 13 26 43 50 71 208 64 367 -3 91 -9
121 -29 166 -71 154 -189 208 -458 208 -99 0 -130 -3 -139 -14z m327 -19 c52
-7 97 -18 101 -25 3 -6 18 -15 32 -21 28 -10 119 -110 119 -131 0 -6 8 -28 17
-48 12 -26 14 -37 5 -40 -14 -4 -16 -42 -2 -42 14 0 12 -94 -2 -108 -10 -10
-10 -17 0 -32 16 -26 16 -70 0 -71 -10 0 -10 -2 0 -6 16 -6 15 -48 -2 -62 -7
-6 -16 -29 -20 -51 -3 -22 -11 -40 -16 -40 -5 0 -13 -12 -16 -26 -7 -28 -42
-67 -68 -77 -9 -4 -16 -11 -16 -17 0 -5 -7 -10 -15 -10 -8 0 -24 -9 -36 -21
-15 -15 -28 -19 -52 -15 -25 5 -27 4 -12 -3 17 -8 14 -10 -17 -10 -20 -1 -49
-6 -65 -12 -15 -6 -73 -11 -127 -11 -86 -1 -101 2 -113 18 -11 16 -14 93 -12
431 1 226 5 416 8 420 10 15 103 31 161 28 30 -2 97 -10 148 -18z"/>
<path d="M5591 3274 c0 -11 3 -14 6 -6 3 7 2 16 -1 19 -3 4 -6 -2 -5 -13z"/>
<path d="M5540 3550 c-11 -7 -1 -9 35 -9 40 1 45 3 25 9 -35 11 -43 11 -60 0z"/>
<path d="M9025 3523 c-11 -3 -24 -9 -29 -14 -6 -5 -18 -9 -27 -9 -25 0 -89
-68 -89 -95 0 -13 -7 -25 -15 -29 -9 -3 -15 -18 -15 -35 0 -16 7 -36 15 -45
17 -17 20 -36 5 -36 -5 0 -10 -5 -10 -11 0 -6 7 -9 15 -5 8 3 15 0 15 -7 1 -7
22 -28 48 -47 42 -31 53 -35 107 -34 68 1 130 33 141 71 3 12 12 27 20 34 20
17 20 145 -1 153 -8 3 -15 11 -15 19 0 7 -10 23 -22 34 -24 21 -104 64 -116
62 -4 -1 -16 -3 -27 -6z m94 -46 c48 -25 91 -92 91 -142 0 -77 -86 -165 -162
-165 -42 0 -103 27 -130 56 -9 11 -23 39 -31 62 -13 38 -13 50 -1 91 31 104
137 149 233 98z"/>
<path d="M5700 3510 c0 -5 11 -10 25 -10 14 0 25 5 25 10 0 6 -11 10 -25 10
-14 0 -25 -4 -25 -10z"/>
<path d="M3594 3486 c-9 -10 -7 -16 7 -24 15 -10 19 -9 19 0 0 25 -14 37 -26
24z"/>
<path d="M5801 3481 c-10 -6 -10 -10 -1 -16 13 -8 24 -1 19 14 -3 6 -10 7 -18
2z"/>
<path d="M8080 3459 c0 -7 16 -8 48 -3 64 9 66 14 4 14 -30 0 -52 -4 -52 -11z"/>
<path d="M5845 3440 c-3 -5 3 -10 14 -10 14 0 21 -6 21 -20 0 -11 5 -20 11
-20 6 0 8 7 5 16 -3 9 -6 17 -6 19 0 11 -39 24 -45 15z"/>
<path d="M5921 3364 c0 -11 3 -14 6 -6 3 7 2 16 -1 19 -3 4 -6 -2 -5 -13z"/>
<path d="M5960 3301 c0 -12 5 -21 10 -21 6 0 10 6 10 14 0 8 -4 18 -10 21 -5
3 -10 -3 -10 -14z"/>
<path d="M4650 3175 c-3 -55 -3 -379 0 -720 l5 -620 5 600 c3 330 3 654 0 720
l-6 120 -4 -100z"/>
<path d="M3860 3250 c0 -5 5 -10 10 -10 6 0 10 5 10 10 0 6 -4 10 -10 10 -5 0
-10 -4 -10 -10z"/>
<path d="M7642 3140 c0 -14 2 -19 5 -12 2 6 2 18 0 25 -3 6 -5 1 -5 -13z"/>
<path d="M9075 3140 c-3 -5 1 -10 9 -10 9 0 16 5 16 10 0 6 -4 10 -9 10 -6 0
-13 -4 -16 -10z"/>
<path d="M6032 3040 c0 -19 2 -27 5 -17 2 9 2 25 0 35 -3 9 -5 1 -5 -18z"/>
<path d="M3870 2935 c0 -27 2 -46 5 -44 7 8 9 78 2 85 -4 4 -7 -14 -7 -41z"/>
<path d="M6615 2904 l-30 -12 40 -4 40 -5 -44 -1 c-25 -1 -52 -9 -63 -19 -11
-9 -18 -11 -18 -5 0 7 -5 12 -11 12 -6 0 -9 -7 -5 -15 3 -10 -1 -15 -14 -15
-10 0 -21 -4 -24 -9 -3 -4 -18 -7 -33 -5 -28 4 -28 4 -3 -5 14 -5 20 -9 13
-10 -30 -2 -133 -87 -188 -154 -17 -21 -21 -22 -28 -8 -5 11 -6 9 -3 -8 3 -15
-7 -39 -30 -72 -19 -27 -34 -57 -34 -68 0 -10 -7 -24 -15 -31 -8 -7 -15 -22
-15 -34 -1 -11 -9 -39 -20 -61 -17 -35 -19 -62 -19 -210 0 -148 2 -175 19
-210 11 -22 19 -49 20 -61 0 -11 7 -29 15 -40 8 -10 15 -26 15 -35 0 -9 9 -24
20 -34 11 -10 20 -27 20 -37 0 -10 7 -21 15 -24 8 -4 12 -11 8 -17 -3 -6 -1
-7 5 -3 7 4 12 2 12 -4 0 -33 181 -170 225 -170 7 0 18 -7 25 -15 7 -9 29 -15
53 -15 23 0 54 -9 74 -21 31 -19 45 -21 119 -16 46 2 90 9 97 15 6 5 31 12 55
15 24 3 51 12 61 21 10 9 25 16 33 16 19 0 98 50 98 62 0 4 5 8 11 8 24 0 139
139 139 168 0 7 4 12 10 12 5 0 13 16 19 35 5 19 16 42 25 51 12 12 13 20 6
35 -14 25 -55 25 -73 -1 -8 -11 -17 -18 -20 -15 -4 3 -5 2 -3 -1 8 -10 -67
-74 -94 -80 -14 -4 -30 -12 -35 -19 -12 -14 -135 -37 -205 -38 -64 0 -181 22
-197 39 -8 8 -23 14 -33 14 -11 0 -24 9 -30 20 -6 11 -19 20 -30 20 -10 0 -21
8 -24 18 -3 9 -22 34 -41 55 -19 21 -35 42 -35 48 0 5 -9 26 -20 46 -12 22
-20 57 -20 84 0 30 -6 51 -15 59 -12 10 -15 31 -13 94 l3 81 360 0 c198 0 313
-3 255 -6 -90 -5 -83 -6 55 -5 131 1 166 4 192 19 29 15 31 20 26 54 -3 21
-11 52 -19 70 -8 17 -14 45 -14 61 0 17 -7 38 -16 46 -10 10 -13 24 -9 38 5
18 4 20 -4 8 -8 -11 -11 -11 -11 -2 0 32 -142 185 -184 198 -11 4 -29 15 -39
25 -10 11 -28 19 -41 19 -13 0 -26 7 -30 15 -3 10 -20 15 -48 16 -35 1 -39 2
-18 8 19 6 11 8 -30 9 -30 1 -71 3 -90 3 -19 1 -48 -2 -64 -6 -21 -6 -32 -4
-40 7 -9 12 -16 13 -41 2z m311 -46 c16 -8 51 -26 79 -39 27 -13 83 -58 125
-99 87 -86 125 -155 147 -267 23 -123 63 -113 -431 -113 -339 0 -426 -3 -435
-13 -14 -18 1 -194 24 -267 52 -169 142 -263 297 -310 76 -23 220 -30 254 -13
10 6 37 14 59 18 50 9 108 43 165 97 54 52 83 54 66 5 -19 -54 -75 -146 -117
-191 -42 -46 -151 -126 -172 -126 -7 0 -21 -6 -32 -14 -11 -7 -64 -21 -118
-30 -91 -15 -104 -15 -190 0 -50 9 -110 25 -132 34 -67 29 -69 30 -91 43 -189
111 -303 333 -303 592 0 128 21 221 79 339 88 180 240 310 421 361 69 19 262
15 305 -7z"/>
<path d="M6670 2814 c-19 -7 -42 -13 -52 -13 -9 -1 -41 -26 -70 -56 -56 -56
-85 -115 -123 -252 -29 -101 -47 -95 275 -91 185 2 283 7 290 14 8 8 8 43 2
121 -14 161 -53 228 -155 272 -54 23 -114 25 -167 5z m120 -8 c29 -10 37 -15
22 -15 -28 -1 -19 -21 9 -21 10 0 19 5 19 10 0 18 17 10 59 -28 24 -22 41 -46
41 -59 0 -12 7 -29 16 -38 10 -10 13 -22 8 -33 -4 -9 -8 -55 -9 -101 l0 -85
-35 -8 c-19 -5 -62 -6 -95 -3 -44 4 -56 3 -45 -5 11 -8 -21 -10 -116 -8 -109
2 -135 6 -151 21 -24 21 -52 22 -59 2 -6 -15 -34 -21 -34 -7 1 4 7 18 15 32 8
14 14 40 15 58 0 17 9 49 20 69 11 21 20 45 20 54 0 9 8 25 18 37 9 11 28 34
42 51 14 17 30 31 36 31 7 0 14 7 18 15 3 8 12 15 20 15 9 0 13 -6 10 -15 -11
-29 7 -34 44 -12 l37 22 -35 6 c-35 6 -35 6 -5 8 23 2 70 15 70 20 0 0 20 -6
45 -13z"/>
<path d="M6865 2740 c3 -5 13 -10 21 -10 8 0 14 5 14 10 0 6 -9 10 -21 10 -11
0 -17 -4 -14 -10z"/>
<path d="M6532 2670 c0 -14 2 -19 5 -12 2 6 2 18 0 25 -3 6 -5 1 -5 -13z"/>
<path d="M6460 2526 c0 -31 6 -34 13 -6 3 11 1 23 -4 26 -5 3 -9 -6 -9 -20z"/>
<path d="M6563 2428 c-2 -5 38 -7 89 -7 97 2 89 6 -20 11 -35 2 -66 0 -69 -4z"/>
<path d="M9078 2899 c-2 -6 -25 -13 -52 -16 -27 -3 -50 -12 -53 -19 -3 -9 -20
-14 -43 -14 -22 0 -48 -8 -63 -20 -16 -13 -40 -20 -66 -20 -26 0 -53 -8 -76
-24 -20 -14 -41 -27 -48 -29 -12 -4 -10 -7 47 -67 18 -18 19 -35 19 -172 -1
-113 -5 -165 -17 -198 -9 -25 -19 -70 -22 -100 -4 -30 -12 -66 -19 -80 -7 -14
-15 -52 -18 -85 -4 -34 -13 -77 -22 -98 -8 -20 -15 -59 -15 -86 0 -31 -6 -55
-15 -65 -8 -8 -15 -29 -15 -46 0 -19 -4 -29 -10 -25 -7 4 -9 -2 -5 -17 4 -16
1 -29 -9 -37 -9 -8 -16 -23 -16 -34 0 -11 -7 -28 -16 -38 -9 -10 -19 -33 -24
-53 -7 -31 -5 -36 14 -43 29 -10 376 -7 387 4 4 4 1 37 -8 73 -16 68 -11 153
10 178 6 8 13 55 15 105 2 51 9 98 15 106 6 7 14 42 18 78 4 36 12 69 19 73 7
4 14 38 17 76 3 38 11 78 18 89 6 11 15 50 19 87 3 36 13 79 21 95 8 15 15 51
15 78 0 28 7 63 16 80 8 16 18 59 21 95 3 36 12 75 19 87 15 24 18 52 8 77 -7
18 -60 22 -66 5z m39 -30 c7 -7 8 -22 2 -42 -8 -30 -28 -126 -65 -307 -8 -41
-23 -113 -33 -160 -11 -47 -29 -130 -41 -185 -11 -55 -27 -125 -35 -155 -7
-30 -19 -89 -25 -130 -6 -41 -16 -102 -21 -135 -6 -33 -8 -91 -5 -129 4 -45 2
-73 -5 -82 -9 -11 -44 -14 -149 -14 -146 0 -200 6 -200 23 0 5 13 39 30 73 16
35 34 81 39 101 40 155 84 348 97 428 3 17 14 68 24 115 42 193 50 265 34 325
-7 31 -14 63 -14 71 0 9 -11 30 -25 48 -14 18 -22 36 -18 40 14 13 96 46 117
46 11 1 39 9 61 20 22 11 48 19 58 20 11 0 33 6 50 14 57 26 107 32 124 15z"/>
<path d="M802 2875 c0 -16 2 -22 5 -12 2 9 2 23 0 30 -3 6 -5 -1 -5 -18z"/>
<path d="M6345 2890 c3 -5 8 -10 11 -10 2 0 4 5 4 10 0 6 -5 10 -11 10 -5 0
-7 -4 -4 -10z"/>
<path d="M6960 2880 c0 -11 4 -20 9 -20 5 0 7 9 4 20 -3 11 -7 20 -9 20 -2 0
-4 -9 -4 -20z"/>
<path d="M8815 2830 c-19 -8 -19 -9 3 -9 12 -1 22 4 22 9 0 6 -1 10 -2 9 -2 0
-12 -4 -23 -9z"/>
<path d="M5962 2800 c0 -14 2 -19 5 -12 2 6 2 18 0 25 -3 6 -5 1 -5 -13z"/>
<path d="M4004 2727 c-4 -10 -2 -23 3 -28 14 -14 24 13 13 32 -7 11 -10 10
-16 -4z"/>
<path d="M6265 2680 c-3 -5 -1 -10 4 -10 6 0 11 5 11 10 0 6 -2 10 -4 10 -3 0
-8 -4 -11 -10z"/>
<path d="M8108 2643 c7 -3 16 -2 19 1 4 3 -2 6 -13 5 -11 0 -14 -3 -6 -6z"/>
<path d="M5700 2560 c0 -5 7 -7 15 -4 8 4 15 8 15 10 0 2 -7 4 -15 4 -8 0 -15
-4 -15 -10z"/>
<path d="M7532 2520 c0 -19 2 -27 5 -17 2 9 2 25 0 35 -3 9 -5 1 -5 -18z"/>
<path d="M5055 2450 c3 -5 12 -7 20 -3 21 7 19 13 -6 13 -11 0 -18 -4 -14 -10z"/>
<path d="M5118 2452 c12 -8 113 -5 121 4 2 2 -27 4 -65 4 -39 0 -63 -4 -56 -8z"/>
<path d="M6131 2434 c0 -11 3 -14 6 -6 3 7 2 16 -1 19 -3 4 -6 -2 -5 -13z"/>
<path d="M620 2374 c0 -14 4 -23 10 -19 6 3 10 15 10 26 0 10 -4 19 -10 19 -5
0 -10 -12 -10 -26z"/>
<path d="M5260 2385 c0 -8 5 -15 10 -15 6 0 10 7 10 15 0 8 -4 15 -10 15 -5 0
-10 -7 -10 -15z"/>
<path d="M5740 2333 c0 -13 5 -23 10 -23 13 0 13 11 0 30 -8 12 -10 11 -10 -7z"/>
<path d="M5301 2314 c0 -11 3 -14 6 -6 3 7 2 16 -1 19 -3 4 -6 -2 -5 -13z"/>
<path d="M6478 2313 c17 -2 47 -2 65 0 17 2 3 4 -33 4 -36 0 -50 -2 -32 -4z"/>
<path d="M6093 2195 c0 -38 2 -53 4 -32 2 20 2 52 0 70 -2 17 -4 1 -4 -38z"/>
<path d="M5371 2188 c-1 -16 4 -28 9 -28 12 0 12 8 0 35 -8 18 -9 17 -9 -7z"/>
<path d="M6092 2090 c0 -19 2 -27 5 -17 2 9 2 25 0 35 -3 9 -5 1 -5 -18z"/>
<path d="M5440 2026 c0 -8 5 -18 10 -21 6 -3 10 3 10 14 0 12 -4 21 -10 21 -5
0 -10 -6 -10 -14z"/>
<path d="M772 1920 c0 -14 2 -19 5 -12 2 6 2 18 0 25 -3 6 -5 1 -5 -13z"/>
<path d="M3971 1914 c0 -11 3 -14 6 -6 3 7 2 16 -1 19 -3 4 -6 -2 -5 -13z"/>
<path d="M3896 1854 c-6 -17 17 -29 34 -19 6 4 9 12 7 18 -5 16 -35 17 -41 1z"/>
<path d="M800 1850 c0 -5 6 -10 14 -10 8 0 18 5 21 10 3 6 -3 10 -14 10 -12 0
-21 -4 -21 -10z"/>
<path d="M5990 1833 c0 -13 5 -23 10 -23 13 0 13 11 0 30 -8 12 -10 11 -10 -7z"/>
<path d="M7000 1780 c0 -5 5 -10 11 -10 5 0 7 5 4 10 -3 6 -8 10 -11 10 -2 0
-4 -4 -4 -10z"/>
<path d="M5090 1693 c0 -18 5 -33 10 -33 13 0 13 30 0 50 -7 11 -10 7 -10 -17z"/>
<path d="M4570 1640 c-12 -7 -12 -12 -3 -21 15 -15 26 -7 21 15 -2 11 -7 13
-18 6z"/>
<path d="M3502 1430 c-10 -16 -10 -20 2 -20 7 0 16 9 19 20 3 11 2 20 -2 20
-3 0 -12 -9 -19 -20z"/>
<path d="M2960 1050 c0 -5 4 -10 9 -10 6 0 13 5 16 10 3 6 -1 10 -9 10 -9 0
-16 -4 -16 -10z"/>
<path d="M2015 940 c4 -6 110 -10 285 -10 175 0 281 4 285 10 4 7 -93 10 -285
10 -192 0 -289 -3 -285 -10z"/>
</g>
</svg>
